<?xml version="1.0" standalone="no"?>
<!DOCTYPE svg PUBLIC "-//W3C//DTD SVG 20010904//EN"
 "http://www.w3.org/TR/2001/REC-SVG-20010904/DTD/svg10.dtd">
<svg version="1.0" xmlns="http://www.w3.org/2000/svg"
 width="4096.000000pt" height="4096.000000pt" viewBox="0 0 4096.000000 4096.000000"
 preserveAspectRatio="xMidYMid meet">
<metadata>
Created by potrace 1.14, written by Peter Selinger 2001-2017
</metadata>
<g transform="translate(0.000000,4096.000000) scale(0.100000,-0.100000)"
fill="#000000" stroke="none">
<path d="M24486 35042 c-2 -1 -54 -4 -117 -7 -116 -5 -241 -12 -339 -20 -146
-12 -188 -16 -220 -20 -19 -2 -62 -7 -95 -10 -33 -3 -69 -7 -80 -9 -11 -2 -47
-7 -80 -10 -33 -4 -76 -10 -95 -13 -19 -3 -48 -7 -65 -8 -52 -6 -109 -15 -131
-20 -11 -2 -43 -7 -70 -10 -27 -3 -69 -10 -94 -15 -53 -11 -88 -18 -150 -26
-25 -3 -48 -8 -52 -10 -4 -3 -26 -7 -50 -10 -24 -3 -60 -10 -81 -15 -21 -6
-50 -12 -65 -14 -15 -2 -36 -6 -47 -9 -66 -15 -254 -57 -275 -62 -14 -2 -95
-23 -180 -45 -85 -22 -165 -42 -177 -44 -46 -10 -345 -98 -483 -142 -80 -26
-150 -48 -156 -49 -11 -2 -123 -39 -154 -51 -8 -3 -19 -7 -25 -9 -9 -2 -238
-84 -338 -120 -65 -24 -220 -84 -252 -98 -16 -7 -46 -19 -65 -26 -38 -15 -233
-95 -265 -110 -11 -5 -112 -50 -225 -100 -357 -160 -790 -380 -1149 -584 -73
-42 -138 -76 -142 -76 -5 0 -9 -4 -9 -8 0 -5 -16 -16 -35 -25 -19 -9 -133 -77
-252 -152 -249 -155 -226 -141 -352 -223 -53 -34 -103 -67 -111 -72 -8 -5 -98
-68 -200 -139 -102 -72 -213 -150 -247 -173 -35 -24 -63 -46 -63 -50 0 -5 -7
-8 -15 -8 -8 0 -15 -3 -15 -7 0 -5 -17 -19 -38 -33 -20 -14 -39 -27 -42 -31
-3 -3 -32 -25 -65 -50 -49 -35 -189 -145 -265 -206 -184 -147 -249 -201 -324
-265 -60 -51 -207 -177 -241 -207 -92 -82 -224 -200 -255 -229 -19 -19 -69
-65 -110 -104 -289 -273 -644 -637 -875 -898 -66 -74 -127 -142 -135 -150 -9
-8 -25 -28 -37 -43 -12 -15 -44 -54 -71 -85 -28 -31 -78 -91 -112 -132 -34
-41 -72 -86 -84 -100 -12 -14 -48 -59 -81 -100 -33 -41 -62 -77 -65 -80 -43
-39 -515 -680 -645 -875 -22 -33 -42 -62 -45 -65 -6 -6 -70 -102 -175 -265
-121 -185 -139 -214 -188 -297 -26 -42 -62 -102 -82 -132 -19 -30 -35 -60 -35
-66 0 -5 -4 -10 -10 -10 -5 0 -10 -4 -10 -10 0 -5 -20 -43 -45 -83 -25 -41
-45 -79 -45 -85 0 -6 -4 -12 -8 -14 -10 -4 -197 -338 -327 -583 -26 -49 -60
-112 -75 -140 -39 -72 -60 -114 -61 -122 -1 -5 -9 -19 -19 -33 -31 -45 -387
-746 -565 -1115 -98 -202 -240 -505 -315 -670 -12 -27 -38 -84 -57 -125 -35
-76 -51 -111 -83 -185 -10 -22 -29 -65 -43 -95 -14 -30 -80 -183 -146 -340
-67 -157 -126 -294 -131 -305 -4 -11 -34 -83 -65 -160 -31 -77 -60 -149 -65
-160 -15 -31 -173 -436 -225 -575 -25 -69 -50 -134 -55 -145 -5 -11 -37 -96
-70 -190 -34 -93 -66 -181 -72 -195 -18 -44 -137 -387 -214 -620 -91 -273 -83
-249 -84 -255 0 -3 -7 -22 -14 -42 -27 -71 -254 -807 -272 -883 -2 -8 -24 -87
-49 -175 -25 -88 -48 -167 -49 -175 -2 -8 -10 -35 -17 -60 -7 -25 -14 -49 -15
-55 -1 -5 -12 -46 -24 -90 -12 -44 -23 -87 -25 -95 -1 -8 -8 -35 -15 -60 -7
-25 -14 -52 -15 -60 -2 -8 -4 -15 -5 -15 -1 0 -3 -7 -5 -15 -2 -8 -22 -89 -45
-180 -23 -91 -43 -172 -45 -180 -2 -8 -8 -33 -13 -55 -6 -22 -13 -51 -16 -65
-2 -14 -22 -101 -45 -195 -22 -93 -42 -181 -44 -195 -3 -14 -10 -44 -16 -68
-7 -24 -14 -55 -16 -70 -2 -15 -16 -81 -30 -147 -35 -157 -38 -171 -55 -265
-6 -36 -14 -72 -17 -80 -3 -8 -7 -24 -9 -35 -1 -11 -5 -33 -8 -50 -4 -16 -9
-46 -12 -65 -3 -19 -7 -43 -10 -52 -5 -19 -12 -49 -19 -93 -18 -99 -28 -158
-40 -215 -10 -54 -16 -87 -21 -125 -3 -22 -9 -56 -14 -75 -5 -19 -11 -55 -14
-80 -7 -48 -13 -89 -21 -130 -7 -31 -12 -62 -20 -115 -3 -22 -7 -47 -10 -55
-2 -8 -6 -35 -9 -60 -3 -25 -8 -54 -10 -65 -4 -24 -18 -111 -22 -145 -2 -14
-5 -38 -8 -55 -3 -16 -8 -52 -12 -80 -3 -27 -8 -59 -10 -70 -2 -11 -6 -40 -9
-65 -3 -25 -7 -56 -10 -70 -6 -37 -13 -88 -20 -150 -3 -30 -8 -66 -10 -80 -5
-26 -14 -93 -20 -145 -10 -90 -15 -134 -19 -165 -3 -19 -8 -57 -11 -85 -3 -27
-10 -84 -15 -125 -5 -41 -12 -100 -15 -130 -8 -80 -14 -137 -21 -205 -4 -33
-8 -76 -10 -95 -8 -93 -14 -159 -19 -200 -3 -25 -7 -74 -10 -110 -4 -64 -9
-124 -20 -245 -6 -69 -13 -158 -20 -265 -3 -41 -8 -106 -11 -145 -3 -38 -8
-97 -9 -130 -2 -33 -6 -109 -10 -170 -3 -60 -8 -141 -11 -180 -2 -38 -7 -119
-10 -180 -2 -60 -6 -150 -8 -200 -3 -49 -7 -151 -10 -225 -16 -359 -20 -624
-19 -1605 0 -972 2 -1203 18 -1670 3 -88 8 -223 10 -300 3 -77 7 -189 10 -250
2 -60 7 -168 10 -240 5 -116 11 -217 20 -340 1 -22 6 -71 10 -110 4 -38 9 -86
11 -105 1 -19 3 -35 4 -35 1 0 3 -13 5 -30 3 -35 14 -103 20 -125 2 -8 7 -35
10 -60 3 -25 10 -61 15 -80 5 -19 12 -51 15 -70 13 -77 77 -307 125 -447 28
-81 52 -152 54 -158 1 -5 8 -21 13 -35 6 -14 23 -54 37 -90 230 -556 630
-1080 1092 -1427 90 -69 229 -160 319 -210 58 -32 265 -136 275 -138 3 0 52
-19 110 -42 58 -23 143 -53 190 -66 47 -14 92 -28 100 -31 8 -3 29 -7 45 -10
17 -2 59 -11 95 -19 36 -9 88 -18 115 -22 28 -3 59 -8 70 -10 119 -27 506 -23
695 6 105 16 123 19 160 29 19 5 51 12 70 15 38 7 113 29 173 51 20 8 38 14
40 13 2 0 50 17 77 28 8 3 20 7 26 8 66 15 444 216 539 287 172 130 275 218
385 328 155 155 159 159 303 340 177 223 393 605 527 935 29 72 58 144 65 160
13 31 104 298 110 325 2 8 13 47 25 85 33 110 97 375 104 430 4 28 9 59 12 70
4 21 11 83 19 175 6 63 6 473 0 540 -2 25 -6 74 -9 110 -7 89 -17 179 -22 215
-3 17 -7 48 -9 70 -2 22 -6 54 -8 70 -5 28 -17 114 -22 160 -2 11 -10 65 -19
120 -10 55 -19 114 -22 130 -2 17 -6 41 -9 55 -3 14 -7 41 -10 60 -3 19 -10
58 -15 85 -6 28 -12 64 -15 80 -2 17 -9 55 -15 85 -6 30 -13 70 -16 89 -3 18
-7 43 -10 55 -2 11 -17 95 -34 186 -17 91 -32 176 -35 190 -6 31 -30 166 -51
280 -8 47 -17 91 -19 98 -3 7 -8 39 -11 70 -3 31 -8 60 -10 63 -4 7 -71 402
-89 527 -3 20 -10 60 -15 87 -5 28 -12 68 -14 90 -3 22 -7 51 -10 65 -2 14 -7
45 -10 70 -4 25 -8 56 -10 70 -6 36 -18 121 -21 150 -3 30 -14 105 -20 140 -2
14 -7 48 -10 75 -3 28 -8 66 -10 85 -4 34 -21 172 -31 260 -3 25 -7 59 -9 75
-2 17 -7 59 -10 95 -3 36 -8 86 -11 112 -2 26 -6 64 -9 84 -2 20 -7 72 -10
114 -3 43 -7 95 -10 116 -7 74 -19 228 -29 404 -3 47 -8 117 -11 155 -3 39 -7
120 -10 180 -2 61 -8 182 -12 270 -15 336 -7 1554 12 1860 3 44 7 132 11 195
5 120 10 187 19 305 3 39 7 106 10 150 13 195 23 312 31 375 3 19 7 60 9 90 6
86 14 170 21 230 6 57 8 69 19 180 3 36 8 83 11 105 2 22 6 59 8 83 3 23 7 59
10 80 6 39 12 89 21 162 3 25 8 65 11 90 3 25 7 56 9 70 5 30 18 129 31 230 3
25 11 86 19 135 8 50 17 108 20 130 3 23 7 50 9 60 2 11 7 43 10 70 11 76 16
107 22 137 3 15 7 42 9 60 4 33 14 96 21 133 2 10 6 35 9 55 3 20 8 47 10 60
3 14 7 39 10 55 3 25 55 316 70 395 2 14 11 63 19 110 8 47 17 92 20 100 3 8
7 31 9 50 3 19 12 69 21 110 8 41 17 86 20 100 4 24 19 100 21 110 10 39 21
87 61 265 25 116 57 253 71 305 13 52 26 104 28 115 4 22 71 275 105 395 11
41 22 82 24 90 6 22 41 144 66 225 11 39 22 77 25 85 2 8 4 15 5 15 1 0 3 8 5
17 4 21 78 258 111 355 14 40 27 81 29 90 4 17 109 321 141 408 8 22 16 45 17
50 3 12 39 107 124 330 150 394 351 873 484 1153 27 56 49 104 49 106 0 2 32
70 72 152 39 82 72 151 73 154 1 5 164 330 184 367 5 10 12 25 15 33 4 8 21
42 39 75 18 33 60 110 92 170 115 217 303 547 516 903 59 100 345 551 366 577
4 6 53 78 108 160 55 83 104 155 110 162 5 7 16 19 23 27 6 8 12 18 12 21 0
23 557 767 735 981 27 33 66 80 85 104 41 51 142 173 150 180 3 3 30 34 60 70
30 36 57 67 60 70 3 3 32 36 65 74 33 39 71 82 85 96 14 14 45 48 69 76 178
202 679 711 871 886 52 47 107 97 121 110 40 36 124 111 150 133 13 12 49 43
79 69 71 62 88 77 190 161 101 83 104 86 127 105 36 30 384 297 465 355 271
197 662 451 898 583 487 274 894 460 1332 610 123 43 301 100 333 108 6 2 82
21 170 44 88 23 171 43 185 46 28 5 79 16 95 20 23 7 274 53 315 59 25 3 56 8
70 10 14 3 50 7 80 10 30 3 72 8 92 11 249 35 751 35 1063 -1 118 -13 141 -16
165 -21 14 -2 41 -6 62 -9 20 -3 103 -19 185 -35 123 -25 191 -41 348 -84 6
-1 37 -11 70 -21 33 -10 62 -19 65 -20 95 -22 441 -161 635 -256 522 -255 956
-607 1305 -1059 19 -25 37 -47 40 -50 9 -9 81 -113 148 -215 174 -265 343
-601 453 -900 64 -174 140 -411 154 -478 2 -10 7 -28 11 -40 4 -12 9 -29 10
-37 2 -8 10 -42 18 -75 18 -69 75 -342 81 -389 3 -17 7 -42 10 -56 3 -14 7
-45 10 -70 3 -25 8 -56 11 -68 3 -13 7 -43 10 -65 3 -23 7 -58 10 -77 5 -34 7
-50 19 -185 3 -33 7 -78 9 -100 19 -181 26 -722 12 -965 -11 -188 -22 -329
-31 -395 -2 -16 -7 -59 -10 -95 -4 -36 -8 -76 -10 -90 -2 -14 -6 -47 -10 -75
-3 -27 -13 -93 -21 -145 -9 -52 -17 -108 -20 -125 -3 -26 -30 -173 -49 -270
-36 -186 -127 -552 -189 -760 -76 -255 -242 -714 -331 -910 -14 -33 -33 -73
-40 -90 -290 -651 -669 -1259 -1084 -1740 -342 -396 -701 -719 -1098 -989 -62
-42 -117 -76 -123 -76 -5 0 -10 -4 -10 -8 0 -5 -15 -16 -32 -26 -18 -9 -42
-22 -53 -29 -145 -88 -361 -199 -540 -277 -122 -53 -343 -137 -380 -144 -11
-3 -38 -11 -61 -19 -36 -13 -214 -64 -254 -72 -8 -2 -53 -12 -100 -23 -47 -11
-101 -23 -120 -26 -19 -3 -44 -7 -55 -10 -20 -4 -69 -11 -139 -22 -21 -3 -48
-7 -60 -10 -11 -2 -50 -6 -86 -10 -36 -3 -76 -7 -90 -9 -130 -23 -644 -22
-845 0 -22 2 -62 7 -90 9 -27 3 -66 7 -85 10 -19 3 -71 10 -115 17 -110 16
-110 15 -205 33 -72 13 -150 30 -245 51 -11 3 -31 7 -45 10 -14 3 -49 12 -77
20 -29 8 -77 22 -105 29 -29 8 -100 30 -158 47 -58 18 -107 33 -110 34 -3 1
-43 14 -90 29 -47 15 -89 29 -95 30 -5 2 -17 6 -25 9 -24 9 -167 53 -250 77
-41 11 -84 25 -95 30 -11 4 -40 13 -65 19 -25 7 -52 14 -60 16 -155 45 -549
149 -603 159 -12 2 -41 9 -65 15 -24 7 -55 14 -70 16 -15 2 -58 11 -97 20 -79
19 -86 21 -170 36 -33 6 -64 12 -70 13 -5 2 -28 6 -50 10 -117 20 -153 26
-185 31 -19 2 -46 7 -60 10 -14 3 -44 7 -67 10 -24 3 -73 9 -110 14 -38 5 -75
9 -83 9 -8 0 -31 3 -50 6 -119 19 -326 30 -575 30 -211 0 -428 -9 -458 -19 -6
-2 -34 -6 -62 -9 -27 -3 -63 -8 -80 -11 -110 -20 -200 -39 -265 -56 -41 -12
-82 -22 -91 -24 -9 -2 -79 -27 -155 -55 -163 -61 -403 -173 -527 -247 -48 -29
-92 -53 -97 -53 -6 0 -10 -4 -10 -10 0 -5 -5 -10 -10 -10 -9 0 -66 -36 -80
-50 -3 -3 -18 -14 -35 -24 -30 -19 -216 -155 -225 -166 -3 -3 -34 -30 -70 -59
-115 -97 -333 -320 -425 -436 -21 -28 -42 -52 -45 -55 -16 -13 -174 -246 -230
-340 -69 -115 -163 -298 -204 -400 -15 -36 -31 -74 -36 -85 -18 -38 -88 -245
-83 -245 3 0 0 -7 -7 -15 -7 -8 -10 -15 -7 -15 4 0 0 -19 -9 -42 -16 -47 -50
-185 -59 -242 -4 -21 -9 -48 -11 -60 -8 -35 -18 -103 -28 -186 -28 -220 -26
-629 4 -800 5 -30 12 -71 14 -90 7 -56 36 -187 62 -285 13 -49 26 -98 29 -108
4 -19 52 -163 62 -187 4 -8 7 -17 8 -20 2 -5 4 -10 42 -105 65 -159 212 -427
321 -585 45 -65 161 -216 184 -242 7 -7 40 -44 73 -83 82 -94 213 -226 315
-315 47 -41 87 -77 90 -80 7 -8 153 -121 186 -145 15 -11 32 -24 39 -30 6 -5
18 -14 26 -20 8 -5 67 -44 130 -86 63 -42 157 -101 209 -132 88 -52 449 -237
515 -264 17 -7 48 -20 70 -29 22 -10 42 -18 45 -19 3 -1 22 -9 44 -18 21 -9
41 -17 45 -17 3 0 17 -6 31 -13 14 -7 54 -23 90 -36 36 -12 74 -26 85 -30 11
-5 58 -21 105 -36 47 -16 117 -43 155 -60 65 -30 193 -71 254 -81 14 -3 33 -7
41 -10 37 -13 441 -97 525 -109 17 -3 41 -7 55 -10 14 -3 43 -7 65 -10 22 -3
54 -9 70 -12 17 -3 44 -7 60 -8 17 -1 44 -5 60 -8 42 -7 112 -17 170 -22 61
-6 123 -14 150 -19 11 -2 63 -7 115 -10 52 -4 109 -9 125 -11 48 -8 281 -21
540 -32 296 -11 693 -7 925 11 182 15 218 18 250 22 19 2 60 7 90 10 30 3 66
7 80 9 14 3 42 7 63 10 152 21 181 26 207 30 14 3 43 8 65 11 22 3 60 10 85
16 25 5 59 12 75 15 51 8 254 53 380 85 66 16 127 31 135 33 8 2 15 4 15 5 0
1 7 3 15 5 49 10 441 130 475 145 11 5 72 27 135 50 141 51 403 157 524 213
100 46 472 231 551 275 478 263 1019 633 1419 972 60 51 181 155 192 165 6 5
49 44 95 85 220 197 522 499 729 729 41 46 80 89 85 95 33 36 201 234 260 306
38 47 72 87 75 90 3 3 19 23 36 45 40 55 47 64 65 83 17 19 260 345 299 402
13 19 27 37 30 40 3 3 39 55 80 115 41 61 88 130 105 155 59 84 248 384 337
535 49 83 93 157 98 165 102 166 400 734 530 1015 252 540 501 1176 662 1690
79 254 108 350 113 375 2 14 9 36 14 50 9 22 78 272 86 310 2 8 8 35 15 60 7
25 14 52 15 60 2 8 16 65 30 125 15 61 29 117 30 125 2 8 4 15 5 15 1 0 3 11
6 23 2 13 15 74 29 135 14 62 27 121 29 132 59 299 98 505 101 534 6 47 13 90
19 121 4 24 26 164 31 205 2 11 6 38 9 60 3 22 8 60 11 85 3 25 8 56 10 70 2
14 6 50 10 80 3 30 8 71 11 90 2 19 6 55 9 80 2 25 7 65 9 90 5 41 13 125 21
220 1 19 5 78 9 130 4 52 9 115 11 140 19 177 28 1220 12 1455 -4 61 -10 148
-13 195 -3 47 -8 108 -10 135 -2 28 -6 73 -8 100 -2 28 -6 75 -10 105 -11 91
-17 147 -21 192 -4 41 -12 114 -20 168 -20 141 -27 189 -31 210 -3 14 -7 41
-9 60 -2 19 -6 44 -8 55 -3 11 -8 40 -12 65 -3 25 -15 90 -26 145 -11 55 -22
111 -24 125 -6 34 -14 70 -20 100 -3 14 -7 34 -9 45 -18 85 -39 180 -52 230
-9 33 -17 67 -19 75 -7 35 -18 79 -35 140 -10 36 -32 119 -50 185 -17 66 -35
129 -40 140 -4 11 -40 121 -80 245 -40 124 -76 230 -81 236 -5 6 -10 19 -12
30 -2 10 -8 28 -12 39 -4 11 -31 81 -60 155 -146 375 -343 785 -522 1088 -24
41 -43 75 -43 77 0 17 -283 446 -382 578 -32 43 -58 81 -58 84 0 4 -7 13 -15
22 -9 9 -45 54 -81 101 -242 315 -621 716 -898 952 -22 18 -76 64 -120 102
-122 103 -119 100 -254 203 -133 100 -260 186 -409 276 -105 63 -246 142 -253
140 -3 0 -17 8 -32 18 -14 10 -28 19 -31 19 -3 0 -66 29 -141 65 -75 36 -137
65 -140 65 -2 0 -21 8 -42 17 -22 9 -43 18 -49 19 -5 2 -53 21 -105 42 -223
92 -629 215 -895 273 -33 7 -64 14 -70 15 -19 5 -180 36 -200 40 -11 1 -72 12
-135 22 -108 19 -165 28 -250 38 -68 8 -135 16 -151 19 -9 2 -56 6 -105 10
-49 3 -100 8 -114 10 -31 4 -175 15 -300 21 -102 6 -730 11 -734 6z"/>
</g>
</svg>
